<svg width="512" height="512" viewBox="0 0 512 512" fill="none" xmlns="http://www.w3.org/2000/svg">
  <!-- Background (full size) -->
  <circle cx="256" cy="256" r="256" fill="#DE5833"/>
  
  <!-- White Ring -->
  <circle cx="256" cy="256" r="244" stroke="white" stroke-width="12" fill="none"/>

  <!-- Duck Head -->
  <path d="M256 100C167.634 100 96 171.634 96 260C96 348.366 167.634 420 256 420C344.366 420 416 348.366 416 260C416 171.634 344.366 100 256 100Z" fill="white"/>
  
  <!-- Hair Tuft (Duck Style) -->
  <path d="M256 105C256 105 270 65 300 85C300 85 280 95 270 110" fill="white"/>

  <!-- Eye Left (Oval) -->
  <ellipse cx="200" cy="230" rx="15" ry="22" fill="#1a1a1a"/>
  
  <!-- Eye Right (Oval) -->
  <ellipse cx="312" cy="230" rx="15" ry="22" fill="#1a1a1a"/>
  
  <!-- Eyebrow Left (Skeptical/Raised) -->
  <path d="M170 190C170 190 200 170 230 190" stroke="#1a1a1a" stroke-width="12" stroke-linecap="round"/>
  
  <!-- Eyebrow Right (Stern/Flat) -->
  <path d="M282 200C282 200 312 205 342 200" stroke="#1a1a1a" stroke-width="12" stroke-linecap="round"/>
  
  <!-- Beak (Official Colors) -->
  <path d="M256 340C280 340 300 320 310 290H202C212 320 232 340 256 340Z" fill="#ffb700"/>
  <path d="M202 290H310L256 265L202 290Z" fill="#fed30a"/>

  <!-- Bow Tie -->
  <!-- Left Wing -->
  <path d="M256 420 L195 390 C185 410, 185 430, 195 450 L256 420 Z" fill="#67bd47"/>
  <!-- Right Wing -->
  <path d="M256 420 L317 390 C327 410, 327 430, 317 450 L256 420 Z" fill="#67bd47"/>
  <!-- Knot -->
  <rect x="244" y="408" width="24" height="24" rx="8" fill="#43a347"/>
  
  <!-- Halo (Guilt Trip) -->
  <ellipse cx="256" cy="65" rx="90" ry="12" stroke="#FFE082" stroke-width="12" fill="none"/>
</svg>